<svg width="40" height="40" viewBox="0 0 40 40" fill="none" xmlns="http://www.w3.org/2000/svg">
<path d="M20 27.917C20.6904 27.917 21.25 28.4766 21.25 29.167V30.417H25C25.6904 30.417 26.25 30.9766 26.25 31.667C26.2498 32.3572 25.6902 32.917 25 32.917H15C14.3098 32.917 13.7502 32.3572 13.75 31.667C13.75 30.9766 14.3096 30.417 15 30.417H18.75V29.167C18.75 28.4766 19.3096 27.917 20 27.917ZM30 7.08301C32.5313 7.08301 34.583 9.13569 34.583 11.667V21.667C34.5828 24.1981 32.5312 26.25 30 26.25H10C7.4688 26.25 5.41717 24.1981 5.41699 21.667V11.667C5.41699 9.13569 7.4687 7.08301 10 7.08301H30ZM10 9.58301C8.84941 9.58301 7.91699 10.5164 7.91699 11.667V21.667C7.91717 22.8174 8.84952 23.75 10 23.75H30C31.1505 23.75 32.0828 22.8174 32.083 21.667V11.667C32.083 10.5164 31.1506 9.58301 30 9.58301H10Z" fill="#43C47D"/>
</svg>
