<svg width="16" height="16" viewBox="0 0 16 16" fill="none" xmlns="http://www.w3.org/2000/svg">
<path fill-rule="evenodd" clip-rule="evenodd" d="M0.5 2.45833C0.5 3.22946 0.918957 3.90274 1.54167 4.26295V12.0417C1.54167 13.3073 2.56768 14.3333 3.83333 14.3333H11.612C11.9723 14.956 12.6455 15.375 13.4167 15.375C14.5673 15.375 15.5 14.4423 15.5 13.2917C15.5 12.5205 15.081 11.8473 14.4583 11.487V3.70833C14.4583 2.44268 13.4323 1.41667 12.1667 1.41667H4.38795C4.02774 0.793957 3.35446 0.375 2.58333 0.375C1.43274 0.375 0.5 1.30774 0.5 2.45833ZM13.2083 11.2186V3.70833C13.2083 3.13304 12.742 2.66667 12.1667 2.66667H4.65638C4.55866 3.65092 3.77592 4.43366 2.79167 4.53138V12.0417C2.79167 12.617 3.25804 13.0833 3.83333 13.0833H11.3436C11.4413 12.0991 12.2241 11.3163 13.2083 11.2186Z" fill="black" fill-opacity="0.6"/>
</svg>
