<svg width="16" height="16" viewBox="0 0 16 16" fill="none" xmlns="http://www.w3.org/2000/svg">
<path fill-rule="evenodd" clip-rule="evenodd" d="M6.36595 2.16666H6.30074C5.23256 2.16666 4.38632 2.16665 3.71684 2.24578C3.02953 2.32703 2.46373 2.49759 1.9911 2.88546C1.83076 3.01705 1.68373 3.16408 1.55214 3.32442C1.16427 3.79705 0.993707 4.36285 0.912464 5.05016C0.833329 5.71964 0.833336 6.56588 0.833344 7.63406V8.36594C0.833336 9.43411 0.833329 10.2804 0.912464 10.9498C0.993707 11.6371 1.16427 12.2029 1.55214 12.6756C1.68373 12.8359 1.83076 12.9829 1.9911 13.1145C2.46373 13.5024 3.02953 13.673 3.71684 13.7542C4.3863 13.8333 5.23251 13.8333 6.30065 13.8333H6.30071H6.36598H6.36604C7.43417 13.8333 8.28038 13.8333 8.94984 13.7542C9.63716 13.673 10.203 13.5024 10.6756 13.1145C10.8359 12.9829 10.983 12.8359 11.1145 12.6756C11.5024 12.2029 11.673 11.6371 11.7542 10.9498C11.7725 10.7954 11.7865 10.6315 11.7973 10.4577C12.3213 10.7188 12.7654 10.9334 13.1355 11.0545C13.5698 11.1966 14.0304 11.254 14.4553 10.9914C14.8801 10.7288 15.0349 10.2911 15.102 9.83914C15.1667 9.40307 15.1667 8.82865 15.1667 8.13852V8.13851V7.86173V7.86172C15.1667 7.17159 15.1667 6.59717 15.102 6.16109C15.0349 5.7091 14.8801 5.27142 14.4553 5.00884C14.0304 4.74627 13.5698 4.80362 13.1355 4.94572C12.7654 5.06682 12.3213 5.28139 11.7973 5.54254C11.7865 5.36863 11.7725 5.20469 11.7542 5.05016C11.673 4.36285 11.5024 3.79705 11.1145 3.32442C10.983 3.16408 10.8359 3.01705 10.6756 2.88546C10.203 2.49759 9.63716 2.32703 8.94984 2.24578C8.28037 2.16665 7.43413 2.16666 6.36595 2.16666ZM11.8333 7.54775C11.8333 7.57634 11.8333 7.60508 11.8333 7.63399V7.63406V8.36594V8.366C11.8333 8.39491 11.8333 8.42366 11.8333 8.45225V9.35777L11.9959 9.43903C12.6595 9.77082 13.1065 9.99288 13.4464 10.1041C13.7793 10.213 13.8801 10.1713 13.9295 10.1407C13.979 10.1102 14.0614 10.0387 14.1128 9.69226C14.1653 9.3385 14.1667 8.83931 14.1667 8.09738V7.90285C14.1667 7.16093 14.1653 6.66174 14.1128 6.30798C14.0614 5.96151 13.979 5.89003 13.9295 5.85949C13.8801 5.82896 13.7793 5.78721 13.4464 5.89614C13.1065 6.00736 12.6595 6.22942 11.9959 6.56121L11.8333 6.64247V7.54775ZM10.8333 7.61275C10.8333 6.53299 10.8314 5.76165 10.7611 5.16755C10.6911 4.57465 10.559 4.22375 10.3415 3.95881C10.2515 3.84911 10.1509 3.74851 10.0412 3.65848C9.77626 3.44105 9.42536 3.30895 8.83246 3.23887C8.22852 3.16748 7.44142 3.16666 6.33334 3.16666C5.22527 3.16666 4.43817 3.16748 3.83423 3.23887C3.24132 3.30895 2.89043 3.44105 2.62549 3.65848C2.51578 3.74851 2.41519 3.84911 2.32515 3.95881C2.10773 4.22375 1.97563 4.57465 1.90555 5.16755C1.83416 5.77149 1.83334 6.55859 1.83334 7.66666V8.33333C1.83334 9.44141 1.83416 10.2285 1.90555 10.8324C1.97563 11.4253 2.10773 11.7762 2.32515 12.0412C2.41519 12.1509 2.51578 12.2515 2.62549 12.3415C2.89043 12.5589 3.24132 12.691 3.83423 12.7611C4.43817 12.8325 5.22527 12.8333 6.33334 12.8333C7.44142 12.8333 8.22852 12.8325 8.83246 12.7611C9.42536 12.691 9.77626 12.5589 10.0412 12.3415C10.1509 12.2515 10.2515 12.1509 10.3415 12.0412C10.559 11.7762 10.6911 11.4253 10.7611 10.8324C10.8314 10.2383 10.8333 9.46701 10.8333 8.38725C10.8333 8.36936 10.8333 8.35139 10.8333 8.33333V7.66666C10.8333 7.64861 10.8333 7.63064 10.8333 7.61275Z" fill="white" fill-opacity="0.6"/>
</svg>
