<svg width="16" height="17" viewBox="0 0 16 17" fill="none" xmlns="http://www.w3.org/2000/svg">
<path fill-rule="evenodd" clip-rule="evenodd" d="M6.70129 0.75C5.71488 0.75 4.83915 1.38119 4.52722 2.31698L4.21621 3.25H0.916687C0.571509 3.25 0.291687 3.52982 0.291687 3.875C0.291687 4.22018 0.571509 4.5 0.916687 4.5H15.0834C15.4285 4.5 15.7084 4.22018 15.7084 3.875C15.7084 3.52982 15.4285 3.25 15.0834 3.25H11.7838L11.4728 2.31698C11.1609 1.38119 10.2852 0.75 9.29876 0.75H6.70129ZM10.4662 3.25H5.53383L5.71307 2.71226C5.85486 2.28691 6.25292 2 6.70129 2H9.29876C9.74712 2 10.1452 2.28691 10.287 2.71226L10.4662 3.25ZM2.78973 5.90852C2.7622 5.56445 2.46096 5.30783 2.11688 5.33536C1.7728 5.36288 1.51618 5.66413 1.54371 6.00821L2.13164 13.3574C2.29621 15.4145 4.01365 17 6.07737 17H9.92274C11.9865 17 13.7039 15.4145 13.8685 13.3574L14.4564 6.00821C14.4839 5.66413 14.2273 5.36288 13.8832 5.33536C13.5391 5.30783 13.2379 5.56445 13.2104 5.90852L12.6224 13.2577C12.5098 14.6652 11.3348 15.75 9.92274 15.75H6.07737C4.66535 15.75 3.49026 14.6652 3.37766 13.2577L2.78973 5.90852ZM6.53858 7.97949C6.50423 7.63603 6.19795 7.38544 5.85449 7.41978C5.51102 7.45413 5.26043 7.76041 5.29478 8.10387L5.71144 12.2705C5.74579 12.614 6.05207 12.8646 6.39553 12.8302C6.739 12.7959 6.98959 12.4896 6.95524 12.1462L6.53858 7.97949ZM10.1456 7.41972C10.4891 7.45407 10.7397 7.76034 10.7053 8.10381L10.2887 12.2705C10.2543 12.6139 9.94806 12.8645 9.6046 12.8302C9.26113 12.7958 9.01054 12.4896 9.04489 12.1461L9.46155 7.97943C9.4959 7.63597 9.80218 7.38538 10.1456 7.41972Z" fill="black" fill-opacity="0.6"/>
</svg>
