<svg width="16" height="16" viewBox="0 0 16 16" fill="none" xmlns="http://www.w3.org/2000/svg">
<path fill-rule="evenodd" clip-rule="evenodd" d="M8.62498 1.20837C8.62498 0.863196 8.34516 0.583374 7.99998 0.583374C7.6548 0.583374 7.37498 0.863196 7.37498 1.20837V8.03285L5.94192 6.59979C5.69784 6.35571 5.30212 6.35571 5.05804 6.59979C4.81396 6.84387 4.81396 7.2396 5.05804 7.48368L7.26341 9.68905C7.67021 10.0958 8.32975 10.0958 8.73655 9.68905L10.9419 7.48368C11.186 7.2396 11.186 6.84387 10.9419 6.59979C10.6978 6.35571 10.3021 6.35571 10.058 6.59979L8.62498 8.03285V1.20837ZM1.95831 11.2084C1.95831 10.8632 1.67849 10.5834 1.33331 10.5834C0.988135 10.5834 0.708313 10.8632 0.708313 11.2084V12.0417C0.708313 14.2278 2.48052 16 4.66665 16H11.3333C13.5194 16 15.2916 14.2278 15.2916 12.0417V11.2084C15.2916 10.8632 15.0118 10.5834 14.6666 10.5834C14.3215 10.5834 14.0416 10.8632 14.0416 11.2084V12.0417C14.0416 13.5375 12.8291 14.75 11.3333 14.75H4.66665C3.17088 14.75 1.95831 13.5375 1.95831 12.0417V11.2084Z" fill="black" fill-opacity="0.6"/>
</svg>
