<svg width="20" height="20" viewBox="0 0 20 20" fill="none" xmlns="http://www.w3.org/2000/svg">
<path fill-rule="evenodd" clip-rule="evenodd" d="M1.875 3.33333C1.875 2.52792 2.52792 1.875 3.33333 1.875H16.6667C17.4721 1.875 18.125 2.52792 18.125 3.33333V12.0833C18.125 12.6586 17.6586 13.125 17.0833 13.125H16.0417V13.75C16.0417 14.3253 15.5753 14.7917 15 14.7917H13.9583V16.25C13.9583 16.8253 13.492 17.2917 12.9167 17.2917H7.08333C6.50804 17.2917 6.04167 16.8253 6.04167 16.25V14.7917H5C4.4247 14.7917 3.95833 14.3253 3.95833 13.75V13.125H2.91667C2.34137 13.125 1.875 12.6586 1.875 12.0833V3.33333ZM3.33333 3.125C3.21827 3.125 3.125 3.21827 3.125 3.33333V11.875H5.20833V13.5417H7.29167V16.0417H12.7083V13.5417H14.7917V11.875H16.875V3.33333C16.875 3.21827 16.7817 3.125 16.6667 3.125H3.33333ZM5.625 5.41667C5.625 5.18655 5.81155 5 6.04167 5H6.45833C6.68845 5 6.875 5.18655 6.875 5.41667V7.91667C6.875 8.14678 6.68845 8.33333 6.45833 8.33333H6.04167C5.81155 8.33333 5.625 8.14678 5.625 7.91667V5.41667ZM8.54167 5C8.31155 5 8.125 5.18655 8.125 5.41667V7.91667C8.125 8.14678 8.31155 8.33333 8.54167 8.33333H8.95833C9.18845 8.33333 9.375 8.14678 9.375 7.91667V5.41667C9.375 5.18655 9.18845 5 8.95833 5H8.54167ZM10.625 5.41667C10.625 5.18655 10.8115 5 11.0417 5H11.4583C11.6885 5 11.875 5.18655 11.875 5.41667V7.91667C11.875 8.14678 11.6885 8.33333 11.4583 8.33333H11.0417C10.8115 8.33333 10.625 8.14678 10.625 7.91667V5.41667ZM13.5417 5C13.3115 5 13.125 5.18655 13.125 5.41667V7.91667C13.125 8.14678 13.3115 8.33333 13.5417 8.33333H13.9583C14.1885 8.33333 14.375 8.14678 14.375 7.91667V5.41667C14.375 5.18655 14.1885 5 13.9583 5H13.5417Z" fill="black" fill-opacity="0.9"/>
</svg>
