<svg width="16" height="16" viewBox="0 0 16 16" fill="none" xmlns="http://www.w3.org/2000/svg">
<path fill-rule="evenodd" clip-rule="evenodd" d="M13 8C13 10.7614 10.7614 13 8 13C5.23857 13 3 10.7614 3 8C3 5.23857 5.23857 3 8 3C10.7614 3 13 5.23857 13 8ZM14 8C14 11.3137 11.3137 14 8 14C4.68629 14 2 11.3137 2 8C2 4.68629 4.68629 2 8 2C11.3137 2 14 4.68629 14 8ZM9.33333 8C9.33333 8.73638 8.73638 9.33333 8 9.33333C7.26362 9.33333 6.66667 8.73638 6.66667 8C6.66667 7.26362 7.26362 6.66667 8 6.66667C8.73638 6.66667 9.33333 7.26362 9.33333 8ZM10.3333 8C10.3333 9.28866 9.28866 10.3333 8 10.3333C6.71133 10.3333 5.66667 9.28866 5.66667 8C5.66667 6.71133 6.71133 5.66667 8 5.66667C9.28866 5.66667 10.3333 6.71133 10.3333 8ZM5.99654 10.0035C6.19181 10.1987 6.19181 10.5153 5.99654 10.7106L5.52514 11.182C5.32988 11.3772 5.01329 11.3772 4.81803 11.182C4.62277 10.9867 4.62277 10.6701 4.81803 10.4749L5.28944 10.0035C5.4847 9.80821 5.80128 9.80821 5.99654 10.0035ZM10.7106 10.0035C10.5153 9.80821 10.1987 9.80821 10.0035 10.0035C9.8082 10.1987 9.8082 10.5153 10.0035 10.7106L10.4749 11.182C10.6701 11.3772 10.9867 11.3772 11.182 11.182C11.3772 10.9867 11.3772 10.6701 11.182 10.4749L10.7106 10.0035ZM4.81808 4.81802C5.01334 4.62276 5.32992 4.62276 5.52518 4.81802L5.99659 5.28942C6.19185 5.48469 6.19185 5.80127 5.99659 5.99653C5.80133 6.19179 5.48474 6.19179 5.28948 5.99653L4.81808 5.52513C4.62282 5.32986 4.62282 5.01328 4.81808 4.81802ZM11.182 5.52513C11.3773 5.32986 11.3773 5.01328 11.182 4.81802C10.9867 4.62276 10.6702 4.62276 10.4749 4.81802L10.0035 5.28942C9.80824 5.48469 9.80824 5.80127 10.0035 5.99653C10.1988 6.19179 10.5153 6.19179 10.7106 5.99653L11.182 5.52513Z" fill="white" fill-opacity="0.6"/>
</svg>
