<svg width="16" height="16" viewBox="0 0 16 16" fill="none" xmlns="http://www.w3.org/2000/svg">
<path fill-rule="evenodd" clip-rule="evenodd" d="M2 3.66667C2 4.28357 2.33517 4.82219 2.83333 5.11036V11.3333C2.83333 12.3459 3.65414 13.1667 4.66667 13.1667H10.8896C11.1778 13.6648 11.7164 14 12.3333 14C13.2538 14 14 13.2538 14 12.3333C14 11.7164 13.6648 11.1778 13.1667 10.8896V4.66667C13.1667 3.65414 12.3459 2.83333 11.3333 2.83333H5.11036C4.82219 2.33517 4.28357 2 3.66667 2C2.74619 2 2 2.74619 2 3.66667ZM12.1667 10.6749V4.66667C12.1667 4.20643 11.7936 3.83333 11.3333 3.83333H5.3251C5.24693 4.62074 4.62074 5.24693 3.83333 5.3251V11.3333C3.83333 11.7936 4.20643 12.1667 4.66667 12.1667H10.6749C10.7531 11.3793 11.3793 10.7531 12.1667 10.6749Z" fill="white" fill-opacity="0.6"/>
</svg>
