<svg width="40" height="40" viewBox="0 0 40 40" fill="none" xmlns="http://www.w3.org/2000/svg">
<path fill-rule="evenodd" clip-rule="evenodd" d="M29.0746 36.8397C28.5188 37.2492 27.7363 37.1306 27.3268 36.5749L3.99344 4.90821C3.58392 4.35243 3.70248 3.56991 4.25826 3.16039C4.81403 2.75087 5.59656 2.86943 6.00608 3.42521L8.33879 6.59103C8.64566 6.53362 8.96316 6.48661 9.29176 6.44777C10.9655 6.24993 13.081 6.24995 15.7515 6.24997H15.9145C18.585 6.24995 20.7006 6.24993 22.3743 6.44777C24.0925 6.65088 25.507 7.07727 26.6886 8.04697C27.0895 8.37594 27.457 8.7435 27.786 9.14435C28.7557 10.3259 29.1821 11.7404 29.3852 13.4587C29.4309 13.8451 29.466 14.255 29.493 14.6898C30.803 14.0369 31.9132 13.5004 32.8384 13.1977C33.9242 12.8424 35.0758 12.699 36.138 13.3555C37.2001 14.0119 37.5869 15.1061 37.7547 16.2361C37.9166 17.3263 37.9166 18.7624 37.9165 20.4877V21.1796C37.9166 22.905 37.9166 24.341 37.7547 25.4312C37.5869 26.5612 37.2001 27.6554 36.138 28.3118C35.0758 28.9683 33.9242 28.8249 32.8384 28.4696C31.9132 28.1669 30.803 27.6304 29.493 26.9775C29.466 27.4121 29.4309 27.8217 29.3852 28.2079C29.1821 29.9262 28.7557 31.3407 27.786 32.5222C27.7265 32.5947 27.6658 32.6661 27.6038 32.7364L29.3394 35.0919C29.7489 35.6476 29.6304 36.4302 29.0746 36.8397ZM26.066 30.6494L10.0285 8.88422C11.4764 8.75164 13.3262 8.74997 15.833 8.74997C18.6032 8.74997 20.5709 8.75201 22.0808 8.93048C23.5631 9.10569 24.4403 9.43593 25.1026 9.97949C25.3769 10.2046 25.6284 10.4561 25.8535 10.7303C26.397 11.3927 26.7273 12.2699 26.9025 13.7522C27.081 15.262 27.083 17.2298 27.083 20V21.6666C27.083 24.4368 27.081 26.4046 26.9025 27.9144C26.7514 29.1926 26.4851 30.0209 26.066 30.6494ZM23.6706 35.0059L22.0046 32.7449C20.5048 32.9147 18.5568 32.9166 15.833 32.9166C13.0628 32.9166 11.0951 32.9146 9.58522 32.7361C8.10296 32.5609 7.22572 32.2307 6.56338 31.6871C6.28911 31.462 6.03762 31.2105 5.81254 30.9363C5.26897 30.2739 4.93873 29.3967 4.76352 27.9144C4.58505 26.4046 4.58301 24.4368 4.58301 21.6666V20C4.58301 17.2298 4.58505 15.262 4.76352 13.7522C4.93708 12.2839 5.26274 11.4093 5.79719 10.7492L4.28126 8.69184C4.14188 8.83743 4.00802 8.98837 3.88001 9.14435C2.91031 10.3259 2.48392 11.7404 2.28081 13.4587C2.08297 15.1324 2.08299 17.248 2.08301 19.9185V21.7482C2.08299 24.4186 2.08297 26.5342 2.28081 28.2079C2.48392 29.9262 2.91031 31.3407 3.88001 32.5222C4.20898 32.9231 4.57654 33.2907 4.9774 33.6196C6.15897 34.5893 7.57347 35.0157 9.29176 35.2188C10.9654 35.4167 13.0809 35.4167 15.7513 35.4166H15.7514H15.9146H15.9147C18.5851 35.4167 20.7006 35.4167 22.3743 35.2188C22.827 35.1653 23.2587 35.0963 23.6706 35.0059ZM29.9894 17.2364C31.6484 16.4069 32.7661 15.8518 33.6159 15.5737C34.4482 15.3014 34.7001 15.4057 34.8237 15.4821C34.9472 15.5584 35.1532 15.7371 35.2818 16.6033C35.4132 17.4877 35.4165 18.7357 35.4165 20.5905V21.0768C35.4165 22.9316 35.4132 24.1796 35.2818 25.064C35.1532 25.9302 34.9472 26.1089 34.8237 26.1852C34.7001 26.2616 34.4482 26.3659 33.6159 26.0936C32.7661 25.8156 31.6484 25.2604 29.9894 24.4309L29.5832 24.2278V17.4395L29.9894 17.2364Z" fill="#B51B40"/>
</svg>
