<svg width="24" height="24" viewBox="0 0 24 24" fill="none" xmlns="http://www.w3.org/2000/svg">
<path fill-rule="evenodd" clip-rule="evenodd" d="M6.50133 5.8495C6.50095 5.84985 6.50057 5.85019 6.50019 5.85053L4.95001 7.25H7C7.41421 7.25 7.75 7.58579 7.75 8C7.75 8.41421 7.41421 8.75 7 8.75H3C2.58579 8.75 2.25 8.41421 2.25 8V4C2.25 3.58579 2.58579 3.25 3 3.25C3.41421 3.25 3.75 3.58579 3.75 4V6.31251L5.49981 4.73282C7.22427 3.18939 9.50333 2.25 12 2.25C17.3848 2.25 21.75 6.61523 21.75 12C21.75 17.3848 17.3848 21.75 12 21.75C7.35895 21.75 3.47688 18.5081 2.49161 14.166C2.39995 13.762 2.65311 13.3603 3.05706 13.2686C3.461 13.1769 3.86277 13.4301 3.95443 13.834C4.78806 17.5079 8.07471 20.25 12 20.25C16.5564 20.25 20.25 16.5564 20.25 12C20.25 7.44365 16.5564 3.75 12 3.75C9.8871 3.75 7.96127 4.54331 6.50133 5.8495Z" fill="white"/>
</svg>
