<svg width="95" height="16" viewBox="0 0 95 16" fill="none" xmlns="http://www.w3.org/2000/svg">
<path fill-rule="evenodd" clip-rule="evenodd" d="M12.256 7.9999C12.256 9.85558 10.6621 11.3599 8.69603 11.3599C7.83556 11.3599 7.04639 11.0718 6.43092 10.5921L12.2075 7.44433C12.2394 7.62505 12.256 7.81065 12.256 7.9999ZM14.3442 6.28001C14.5293 6.82191 14.6293 7.39989 14.6293 7.9999C14.6293 11.0927 11.9729 13.5999 8.69603 13.5999C6.95043 13.5999 5.3809 12.8884 4.29521 11.7559L1.18665 13.4499L0 11.51L3.0862 9.82822C2.87661 9.25524 2.76278 8.64012 2.76278 7.9999C2.76278 4.90711 5.41919 2.3999 8.69603 2.3999C10.4852 2.3999 12.0894 3.14733 13.1772 4.32941L16.4427 2.54997L17.6293 4.48986L14.3442 6.28001ZM5.20739 8.67234L11.0567 5.48489C10.4285 4.95913 9.60174 4.6399 8.69603 4.6399C6.72992 4.6399 5.13608 6.14423 5.13608 7.9999C5.13608 8.23019 5.16063 8.45507 5.20739 8.67234Z" fill="white" fill-opacity="0.9"/>
<path d="M91.2558 12.4243C90.2432 12.4243 89.3528 12.2485 88.5846 11.897C87.8164 11.5345 87.217 11.0402 86.7864 10.414C86.3674 9.77687 86.1579 9.04086 86.1579 8.20598C86.1579 7.28322 86.3616 6.49228 86.7689 5.83317C87.1763 5.17406 87.7175 4.66874 88.3926 4.31721C89.0793 3.95469 89.8358 3.77344 90.6622 3.77344C91.6049 3.77344 92.3906 3.96019 93.0191 4.33368C93.6592 4.70718 94.1422 5.218 94.4681 5.86613C94.794 6.50327 94.9569 7.23379 94.9569 8.05768C94.9569 8.20049 94.9453 8.37076 94.922 8.56849C94.9104 8.75524 94.8929 8.90354 94.8697 9.0134H89.0036C89.0735 9.29901 89.2073 9.54069 89.4052 9.73842C89.603 9.93616 89.8533 10.0845 90.1559 10.1833C90.4585 10.2712 90.796 10.3151 91.1685 10.3151H93.9094V12.4243H91.2558ZM88.9338 7.41504H92.3382C92.3149 7.23928 92.28 7.06901 92.2334 6.90423C92.1869 6.73945 92.1112 6.59664 92.0065 6.47581C91.9134 6.34398 91.8028 6.23413 91.6748 6.14625C91.5467 6.04738 91.3954 5.97049 91.2208 5.91556C91.0579 5.86063 90.8717 5.83317 90.6622 5.83317C90.3945 5.83317 90.1559 5.87711 89.9464 5.96499C89.7369 6.05288 89.5623 6.17371 89.4226 6.32751C89.283 6.47031 89.1724 6.64058 89.0909 6.83832C89.0211 7.02507 88.9687 7.21731 88.9338 7.41504Z" fill="white" fill-opacity="0.9"/>
<path d="M80.5242 3.77344C81.2807 3.77344 81.9499 3.88878 82.5319 4.11947C83.1255 4.33918 83.6259 4.65775 84.0333 5.07519C84.4523 5.48164 84.7724 5.96499 84.9935 6.52524C85.2147 7.0745 85.3252 7.68418 85.3252 8.35428C85.3252 9.18916 85.139 9.93066 84.7665 10.5788C84.4057 11.2159 83.9053 11.7158 83.2651 12.0783C82.625 12.4408 81.8801 12.622 81.0304 12.622C80.6696 12.622 80.3263 12.5781 80.0004 12.4902C79.6861 12.4023 79.3952 12.276 79.1275 12.1112C78.8714 11.9465 78.6561 11.7432 78.4815 11.5016H78.4291V16H75.7231V8.35428C75.7231 7.42054 75.9209 6.61312 76.3167 5.93204C76.7124 5.25095 77.2711 4.72366 77.9927 4.35016C78.7143 3.96568 79.5581 3.77344 80.5242 3.77344ZM80.5242 5.98147C80.1051 5.98147 79.7385 6.08034 79.4243 6.27807C79.1217 6.46482 78.8889 6.72847 78.7259 7.06901C78.563 7.39857 78.4815 7.77206 78.4815 8.1895C78.4815 8.60694 78.563 8.98044 78.7259 9.31C78.8889 9.63955 79.1217 9.9032 79.4243 10.1009C79.7385 10.2877 80.1051 10.3811 80.5242 10.3811C80.9432 10.3811 81.304 10.2877 81.6066 10.1009C81.9092 9.9032 82.142 9.63955 82.3049 9.31C82.4795 8.98044 82.5668 8.60694 82.5668 8.1895C82.5668 7.77206 82.4795 7.39857 82.3049 7.06901C82.142 6.72847 81.9092 6.46482 81.6066 6.27807C81.304 6.08034 80.9432 5.98147 80.5242 5.98147Z" fill="white" fill-opacity="0.9"/>
<path d="M71.4365 12.4243V3.97116H74.16V12.4243H71.4365ZM72.7983 3.01545C72.3676 3.01545 71.9952 2.86715 71.6809 2.57054C71.3667 2.27394 71.2096 1.92242 71.2096 1.51596C71.2096 1.10951 71.3667 0.757981 71.6809 0.46138C71.9952 0.153793 72.3676 0 72.7983 0C73.2289 0 73.6014 0.153793 73.9156 0.46138C74.2299 0.757981 74.387 1.10951 74.387 1.51596C74.387 1.92242 74.2299 2.27394 73.9156 2.57054C73.6014 2.86715 73.2289 3.01545 72.7983 3.01545Z" fill="white" fill-opacity="0.9"/>
<path d="M65.3838 3.77344C66.1403 3.77344 66.8095 3.88878 67.3915 4.11947C67.9851 4.33918 68.4856 4.65775 68.8929 5.07519C69.3119 5.48164 69.632 5.96499 69.8531 6.52524C70.0743 7.0745 70.1848 7.68418 70.1848 8.35428C70.1848 9.18916 69.9986 9.93066 69.6262 10.5788C69.2654 11.2159 68.7649 11.7158 68.1247 12.0783C67.4846 12.4408 66.7397 12.622 65.8901 12.622C65.5293 12.622 65.1859 12.5781 64.86 12.4902C64.5458 12.4023 64.2548 12.276 63.9871 12.1112C63.731 11.9465 63.5157 11.7432 63.3411 11.5016H63.2888V16H60.5827V8.35428C60.5827 7.42054 60.7806 6.61312 61.1763 5.93204C61.572 5.25095 62.1307 4.72366 62.8523 4.35016C63.5739 3.96568 64.4177 3.77344 65.3838 3.77344ZM65.3838 5.98147C64.9648 5.98147 64.5981 6.08034 64.2839 6.27807C63.9813 6.46482 63.7485 6.72847 63.5856 7.06901C63.4226 7.39857 63.3411 7.77206 63.3411 8.1895C63.3411 8.60694 63.4226 8.98044 63.5856 9.31C63.7485 9.63955 63.9813 9.9032 64.2839 10.1009C64.5981 10.2877 64.9648 10.3811 65.3838 10.3811C65.8028 10.3811 66.1636 10.2877 66.4662 10.1009C66.7688 9.9032 67.0016 9.63955 67.1645 9.31C67.3391 8.98044 67.4264 8.60694 67.4264 8.1895C67.4264 7.77206 67.3391 7.39857 67.1645 7.06901C67.0016 6.72847 66.7688 6.46482 66.4662 6.27807C66.1636 6.08034 65.8028 5.98147 65.3838 5.98147Z" fill="white" fill-opacity="0.9"/>
<path d="M54.5587 12.622C53.6392 12.622 52.8129 12.4298 52.0796 12.0453C51.3464 11.6608 50.7644 11.1335 50.3338 10.4634C49.9148 9.79335 49.7053 9.04086 49.7053 8.20598C49.7053 7.36012 49.9148 6.60763 50.3338 5.94851C50.7644 5.27842 51.3464 4.75112 52.0796 4.36664C52.8129 3.97117 53.6392 3.77344 54.5587 3.77344C55.4782 3.77344 56.2987 3.97117 57.0203 4.36664C57.7536 4.75112 58.3297 5.27842 58.7487 5.94851C59.1794 6.60763 59.3947 7.36012 59.3947 8.20598C59.3947 9.04086 59.1794 9.79335 58.7487 10.4634C58.3297 11.1335 57.7536 11.6608 57.0203 12.0453C56.2871 12.4298 55.4665 12.622 54.5587 12.622ZM54.5587 10.3975C54.9893 10.3975 55.3618 10.2987 55.676 10.1009C55.9903 9.9032 56.2347 9.63955 56.4093 9.31C56.5839 8.98044 56.6712 8.60694 56.6712 8.1895C56.6712 7.78305 56.5839 7.41504 56.4093 7.08549C56.2347 6.75593 55.9903 6.49228 55.676 6.29455C55.3618 6.09682 54.9893 5.99795 54.5587 5.99795C54.1281 5.99795 53.7498 6.09682 53.4239 6.29455C53.1097 6.49228 52.8652 6.75593 52.6906 7.08549C52.5161 7.41504 52.4288 7.78305 52.4288 8.1895C52.4288 8.60694 52.5161 8.98044 52.6906 9.31C52.8652 9.63955 53.1097 9.9032 53.4239 10.1009C53.7498 10.2987 54.1281 10.3975 54.5587 10.3975Z" fill="white" fill-opacity="0.9"/>
<path d="M44.0715 12.6221C43.1055 12.6221 42.2617 12.4353 41.54 12.0618C40.8184 11.6883 40.2598 11.1555 39.864 10.4635C39.4683 9.77141 39.2704 8.96399 39.2704 8.04123V0.395508H41.9765V4.89396H42.0289C42.2035 4.66327 42.4188 4.46554 42.6748 4.30076C42.9425 4.125 43.2335 3.99317 43.5478 3.90529C43.8736 3.81741 44.217 3.77347 44.5778 3.77347C45.4274 3.77347 46.1723 3.95472 46.8125 4.31724C47.4526 4.67975 47.9531 5.17958 48.3139 5.81672C48.6864 6.45387 48.8726 7.20086 48.8726 8.05771C48.8726 8.71682 48.762 9.32651 48.5409 9.88675C48.3197 10.447 47.9997 10.9358 47.5807 11.3533C47.1733 11.7597 46.6728 12.0728 46.0792 12.2925C45.4973 12.5122 44.828 12.6221 44.0715 12.6221ZM44.0715 10.414C44.4905 10.414 44.8513 10.3207 45.1539 10.1339C45.4565 9.93619 45.6893 9.67254 45.8523 9.34298C46.0269 9.00244 46.1141 8.62345 46.1141 8.20601C46.1141 7.78857 46.0269 7.41507 45.8523 7.08552C45.6893 6.75596 45.4565 6.49781 45.1539 6.31106C44.8513 6.11332 44.4905 6.01446 44.0715 6.01446C43.6525 6.01446 43.2859 6.11332 42.9716 6.31106C42.669 6.49781 42.4362 6.75596 42.2733 7.08552C42.1104 7.41507 42.0289 7.78857 42.0289 8.20601C42.0289 8.62345 42.1104 9.00244 42.2733 9.34298C42.4362 9.67254 42.669 9.93619 42.9716 10.1339C43.2859 10.3207 43.6525 10.414 44.0715 10.414Z" fill="white" fill-opacity="0.9"/>
<path d="M33.2465 12.622C32.327 12.622 31.5006 12.4298 30.7674 12.0453C30.0341 11.6608 29.4522 11.1335 29.0215 10.4634C28.6025 9.79335 28.393 9.04086 28.393 8.20598C28.393 7.36012 28.6025 6.60763 29.0215 5.94851C29.4522 5.27842 30.0341 4.75112 30.7674 4.36664C31.5006 3.97117 32.327 3.77344 33.2465 3.77344C34.166 3.77344 34.9865 3.97117 35.7081 4.36664C36.4414 4.75112 37.0175 5.27842 37.4365 5.94851C37.8671 6.60763 38.0825 7.36012 38.0825 8.20598C38.0825 9.04086 37.8671 9.79335 37.4365 10.4634C37.0175 11.1335 36.4414 11.6608 35.7081 12.0453C34.9749 12.4298 34.1543 12.622 33.2465 12.622ZM33.2465 10.3975C33.6771 10.3975 34.0496 10.2987 34.3638 10.1009C34.6781 9.9032 34.9225 9.63955 35.0971 9.31C35.2717 8.98044 35.3589 8.60694 35.3589 8.1895C35.3589 7.78305 35.2717 7.41504 35.0971 7.08549C34.9225 6.75593 34.6781 6.49228 34.3638 6.29455C34.0496 6.09682 33.6771 5.99795 33.2465 5.99795C32.8158 5.99795 32.4376 6.09682 32.1117 6.29455C31.7974 6.49228 31.553 6.75593 31.3784 7.08549C31.2038 7.41504 31.1166 7.78305 31.1166 8.1895C31.1166 8.60694 31.2038 8.98044 31.3784 9.31C31.553 9.63955 31.7974 9.9032 32.1117 10.1009C32.4376 10.2987 32.8158 10.3975 33.2465 10.3975Z" fill="white" fill-opacity="0.9"/>
<path d="M22.715 12.4242V6.45923C22.715 5.69026 22.9477 5.08607 23.4133 4.64666C23.8789 4.20725 24.5248 3.98755 25.3512 3.98755H27.9525V6.06376H26.0146C25.8517 6.06376 25.712 6.11869 25.5956 6.22854C25.4792 6.3274 25.421 6.45923 25.421 6.62401V12.4242H22.715Z" fill="white" fill-opacity="0.9"/>
</svg>
