<svg width="16" height="16" viewBox="0 0 16 16" fill="none" xmlns="http://www.w3.org/2000/svg">
<path fill-rule="evenodd" clip-rule="evenodd" d="M13 6.23568V9.7642C13 10.3695 12.6718 10.9272 12.1427 11.2211L8.80941 13.073C8.30604 13.3526 7.69397 13.3526 7.1906 13.073L3.85726 11.2211C3.32815 10.9272 3 10.3695 3 9.7642V6.23568C3 5.6304 3.32815 5.0727 3.85726 4.77875L7.19059 2.9269C7.69397 2.64725 8.30604 2.64725 8.80941 2.9269L12.1427 4.77875C12.6718 5.0727 13 5.6304 13 6.23568ZM2 6.23568C2 5.26724 2.52505 4.37491 3.37162 3.9046L6.70495 2.05274C7.51034 1.6053 8.48965 1.6053 9.29505 2.05274L12.6284 3.90459C13.475 4.37491 14 5.26724 14 6.23568V9.7642C14 10.7326 13.475 11.625 12.6284 12.0953L9.29505 13.9471C8.48966 14.3946 7.51035 14.3946 6.70495 13.9471L3.37162 12.0953C2.52505 11.625 2 10.7326 2 9.7642V6.23568ZM9.33333 7.99996C9.33333 8.73634 8.73638 9.33329 8 9.33329C7.26362 9.33329 6.66667 8.73634 6.66667 7.99996C6.66667 7.26358 7.26362 6.66663 8 6.66663C8.73638 6.66663 9.33333 7.26358 9.33333 7.99996ZM10.3333 7.99996C10.3333 9.28862 9.28866 10.3333 8 10.3333C6.71134 10.3333 5.66667 9.28862 5.66667 7.99996C5.66667 6.71129 6.71134 5.66663 8 5.66663C9.28866 5.66663 10.3333 6.71129 10.3333 7.99996Z" fill="white" fill-opacity="0.6"/>
</svg>
