<svg width="14" height="14" viewBox="0 0 14 14" fill="none" xmlns="http://www.w3.org/2000/svg">
<path fill-rule="evenodd" clip-rule="evenodd" d="M0.541672 4.50008C0.541672 2.31395 2.31388 0.541748 4.50001 0.541748H9.50001C11.6861 0.541748 13.4583 2.31395 13.4583 4.50008V9.50008C13.4583 11.6862 11.6861 13.4584 9.50001 13.4584H4.50001C2.31388 13.4584 0.541672 11.6862 0.541672 9.50008V4.50008ZM4.50001 1.79175C3.00423 1.79175 1.79167 3.00431 1.79167 4.50008V9.50008C1.79167 10.9959 3.00423 12.2084 4.50001 12.2084H9.50001C10.9958 12.2084 12.2083 10.9959 12.2083 9.50008V4.50008C12.2083 3.00431 10.9958 1.79175 9.50001 1.79175H4.50001Z" fill="white"/>
</svg>
