<svg width="16" height="16" viewBox="0 0 16 16" fill="none" xmlns="http://www.w3.org/2000/svg">
<path fill-rule="evenodd" clip-rule="evenodd" d="M9.57878 2.35876C9.39012 1.88041 8.71314 1.88041 8.52448 2.35876L7.5348 4.86813L5.02543 5.85781C4.54708 6.04647 4.54708 6.72345 5.02543 6.91211L7.5348 7.90179L8.52448 10.4112C8.71314 10.8895 9.39012 10.8895 9.57878 10.4112L10.5685 7.90179L13.0778 6.91211C13.5562 6.72345 13.5562 6.04647 13.0778 5.85781L10.5685 4.86813L9.57878 2.35876ZM8.39601 5.4101L9.05163 3.74776L9.70724 5.4101C9.76484 5.55614 9.88045 5.67175 10.0265 5.72934L11.6888 6.38496L10.0265 7.04058C9.88045 7.09817 9.76484 7.21378 9.70724 7.35982L9.05163 9.02216L8.39601 7.35982C8.33841 7.21378 8.22281 7.09817 8.07677 7.04058L6.41443 6.38496L8.07677 5.72934C8.22281 5.67175 8.33841 5.55614 8.39601 5.4101ZM5.13789 9.16558C4.96921 8.73788 4.36391 8.73788 4.19522 9.16558L3.71541 10.3822L2.49884 10.862C2.07114 11.0307 2.07114 11.636 2.49884 11.8046L3.71541 12.2844L4.19522 13.501C4.36391 13.9287 4.96921 13.9287 5.13789 13.501L5.6177 12.2844L6.83428 11.8046C7.26198 11.636 7.26198 11.0307 6.83428 10.862L5.6177 10.3822L5.13789 9.16558ZM4.56707 10.9484L4.66656 10.6961L4.76605 10.9484C4.81755 11.079 4.92092 11.1823 5.05149 11.2338L5.30376 11.3333L5.05149 11.4328C4.9209 11.4843 4.81755 11.5877 4.76605 11.7182L4.66656 11.9705L4.56707 11.7182C4.51556 11.5877 4.4122 11.4843 4.28162 11.4328L4.02936 11.3333L4.28162 11.2338C4.41221 11.1823 4.51557 11.0789 4.56707 10.9484Z" fill="white" fill-opacity="0.6"/>
</svg>
