<svg width="48" height="52" viewBox="0 0 48 52" fill="none" xmlns="http://www.w3.org/2000/svg">
<path fill-rule="evenodd" clip-rule="evenodd" d="M26.357 1.52856C25.0552 0.226809 22.9447 0.226809 21.6429 1.52856L14.5857 8.58575C13.8047 9.3668 13.8047 10.6331 14.5857 11.4142C15.3668 12.1952 16.6331 12.1952 17.4142 11.4142L22 6.82839V28.6667C22 29.7713 22.8954 30.6667 24 30.6667C25.1045 30.6667 26 29.7713 26 28.6667V6.82839L30.5857 11.4142C31.3668 12.1952 32.6331 12.1952 33.4142 11.4142C34.1952 10.6331 34.1952 9.3668 33.4142 8.58575L26.357 1.52856ZM4.66663 36.6667C4.66663 35.5621 3.7712 34.6667 2.66663 34.6667C1.56206 34.6667 0.666626 35.5621 0.666626 36.6667V39.3333C0.666626 46.3289 6.33769 52 13.3333 52H34.6666C41.6622 52 47.3333 46.3289 47.3333 39.3333V36.6667C47.3333 35.5621 46.4379 34.6667 45.3333 34.6667C44.2287 34.6667 43.3333 35.5621 43.3333 36.6667V39.3333C43.3333 44.1198 39.4531 48 34.6666 48H13.3333C8.54682 48 4.66663 44.1198 4.66663 39.3333V36.6667Z" fill="#0F6D41"/>
</svg>
