<svg width="20" height="20" viewBox="0 0 20 20" fill="none" xmlns="http://www.w3.org/2000/svg">
<path fill-rule="evenodd" clip-rule="evenodd" d="M3.33366 5.20837C2.06801 5.20837 1.04199 6.23439 1.04199 7.50004V12.5C1.04199 13.7657 2.06801 14.7917 3.33366 14.7917H16.667C17.9326 14.7917 18.9587 13.7657 18.9587 12.5V7.50004C18.9587 6.23439 17.9326 5.20837 16.667 5.20837H3.33366ZM2.29199 7.50004C2.29199 6.92474 2.75836 6.45837 3.33366 6.45837H16.667C17.2423 6.45837 17.7087 6.92474 17.7087 7.50004V12.5C17.7087 13.0753 17.2423 13.5417 16.667 13.5417H3.33366C2.75836 13.5417 2.29199 13.0753 2.29199 12.5V7.50004ZM5.83366 10.8334C5.37342 10.8334 5.00033 11.2065 5.00033 11.6667C5.00033 12.1269 5.37342 12.5 5.83366 12.5H14.167C14.6272 12.5 15.0003 12.1269 15.0003 11.6667C15.0003 11.2065 14.6272 10.8334 14.167 10.8334H5.83366Z" fill="black" fill-opacity="0.9"/>
</svg>
