<svg width="100" height="32" viewBox="0 0 100 32" fill="none" xmlns="http://www.w3.org/2000/svg">
<g clip-path="url(#clip0_1516_38204)">
<path d="M15.953 32C24.7637 32 31.9061 24.8366 31.9061 16C31.9061 7.16344 24.7637 0 15.953 0C7.14242 0 0 7.16344 0 16C0 24.8366 7.14242 32 15.953 32Z" fill="#00E2AC"/>
<path d="M13.63 18.1522C13.6001 18.334 13.5187 18.5033 13.3956 18.6401C13.2725 18.7769 13.1129 18.8753 12.9356 18.9237C12.7584 18.972 12.571 18.9683 12.3958 18.913C12.2205 18.8576 12.0649 18.753 11.9472 18.6114C11.8296 18.4699 11.755 18.2975 11.7322 18.1147C11.7095 17.9319 11.7396 17.7463 11.819 17.5802C11.8983 17.414 12.0236 17.2742 12.1799 17.1774C12.3362 17.0805 12.5169 17.0308 12.7006 17.034C12.8356 17.044 12.9673 17.0812 13.0877 17.1433C13.2082 17.2054 13.3149 17.2912 13.4016 17.3955C13.4883 17.4998 13.5532 17.6206 13.5925 17.7506C13.6317 17.8806 13.6445 18.0172 13.63 18.1522ZM15.9999 18.0124C15.8589 18.01 15.7189 18.0362 15.5881 18.0892C15.4574 18.1423 15.3387 18.2212 15.2389 18.3212C15.1392 18.4212 15.0606 18.5403 15.0077 18.6714C14.9548 18.8025 14.9287 18.9429 14.931 19.0844V20.8088C14.931 20.9496 14.9587 21.089 15.0124 21.219C15.0661 21.3491 15.1448 21.4673 15.2441 21.5668C15.3434 21.6664 15.4612 21.7453 15.5909 21.7992C15.7205 21.8531 15.8595 21.8808 15.9999 21.8808C16.1403 21.8808 16.2793 21.8531 16.4089 21.7992C16.5386 21.7453 16.6564 21.6664 16.7557 21.5668C16.8549 21.4673 16.9337 21.3491 16.9874 21.219C17.0411 21.089 17.0687 20.9496 17.0687 20.8088V19.0844C17.0711 18.9429 17.045 18.8025 16.9921 18.6714C16.9392 18.5403 16.8606 18.4212 16.7608 18.3212C16.6611 18.2212 16.5424 18.1423 16.4117 18.0892C16.2809 18.0362 16.1409 18.01 15.9999 18.0124ZM25.2468 12.0005C26.2223 16.4278 23.6668 18.1522 23.6668 18.1522C23.45 19.8771 22.6458 21.4739 21.3903 22.6725C20.6896 23.3951 19.8516 23.9695 18.9258 24.3617C18 24.7539 17.0052 24.956 16.0002 24.956C14.9952 24.956 14.0004 24.7539 13.0746 24.3617C12.1488 23.9695 11.3108 23.3951 10.6101 22.6725C9.35457 21.4739 8.55037 19.8771 8.33357 18.1522C8.33357 18.1522 5.77813 16.4278 6.75363 12.0005L5.82422 11.9537C6.1286 11.1694 6.59734 10.4598 7.19876 9.87286C7.80017 9.28593 8.52024 8.83536 9.31025 8.55162C10.1752 8.24049 11.1037 8.15001 12.0122 8.28832C12.9207 8.42662 13.7806 8.78938 14.5145 9.34392C15.4658 9.15748 16.4442 9.15748 17.3955 9.34392C18.128 8.78645 18.988 8.42188 19.8971 8.28348C20.8061 8.14508 21.7353 8.23726 22.5997 8.55162C23.395 8.82581 24.1199 9.27301 24.7226 9.86118C25.3252 10.4493 25.7908 11.1639 26.0858 11.9537L25.2468 12.0005ZM10.4707 11.5809C11.1671 10.8785 11.986 10.3099 12.8867 9.90332C12.7006 9.71666 9.58737 9.01799 8.0541 11.207H9.12295C9.12295 11.207 7.26413 12.5107 8.2863 15.7273C8.59411 14.1609 9.3534 12.7194 10.4701 11.5815L10.4707 11.5809ZM22.4124 17.0802C22.4033 15.8102 22.0195 14.5713 21.3094 13.5198C20.5993 12.4683 19.5946 11.6511 18.4221 11.1714C17.2496 10.6917 15.9617 10.5709 14.7209 10.8243C13.48 11.0776 12.3417 11.6938 11.4495 12.5951C10.5573 13.4963 9.95113 14.6423 9.70742 15.8886C9.4637 17.1349 9.59335 18.4257 10.08 19.5982C10.5667 20.7707 11.3886 21.7724 12.4421 22.4771C13.4956 23.1818 14.7336 23.5578 15.9999 23.5578C16.845 23.5548 17.6811 23.3849 18.4607 23.0577C19.2403 22.7306 19.948 22.2526 20.5434 21.6512C21.1388 21.0497 21.6102 20.3366 21.9308 19.5524C22.2514 18.7682 22.4149 17.9283 22.4118 17.0808L22.4124 17.0802ZM22.8768 11.2082H23.9451C22.4089 9.01562 19.2986 9.71666 19.1125 9.90451C20.2893 10.4337 21.3217 11.2394 22.1224 12.2533C22.9232 13.2672 23.4687 14.4596 23.7129 15.7297C24.7351 12.5137 22.8768 11.2088 22.8768 11.2088V11.2082ZM19.2992 17.0334C19.1642 17.0434 19.0325 17.0806 18.9121 17.1427C18.7916 17.2048 18.6849 17.2906 18.5982 17.3949C18.5115 17.4992 18.4466 17.62 18.4073 17.75C18.3681 17.88 18.3553 18.0166 18.3698 18.1516C18.3997 18.3334 18.4811 18.5027 18.6042 18.6395C18.7273 18.7763 18.8869 18.8747 19.0642 18.9231C19.2414 18.9714 19.4288 18.9677 19.604 18.9124C19.7793 18.857 19.9349 18.7524 20.0526 18.6109C20.1702 18.4693 20.2448 18.2969 20.2675 18.1141C20.2903 17.9313 20.2602 17.7457 20.1808 17.5796C20.1015 17.4134 19.9762 17.2736 19.8199 17.1768C19.6636 17.0799 19.4829 17.0302 19.2992 17.0334Z" fill="#191A23"/>
</g>
<g clip-path="url(#clip1_1516_38204)">
<path d="M45.0336 16.7585L44.1137 17.7109V19.4368H42.5415V12.5935H44.1137V15.8067L47.1397 12.5935H48.8903L46.042 15.6582L49.068 19.4368H47.2295L45.0336 16.7585Z" fill="white"/>
<path d="M50.7183 16.0155C50.7183 13.9622 52.2905 12.4748 54.4561 12.4748C54.9371 12.4465 55.4188 12.5171 55.8716 12.6823C56.3244 12.8474 56.7388 13.1036 57.0894 13.4352C57.4399 13.7667 57.7192 14.1666 57.9101 14.6104C58.101 15.0541 58.1994 15.5322 58.1994 16.0155C58.1994 16.4987 58.101 16.9769 57.9101 17.4206C57.7192 17.8643 57.4399 18.2642 57.0894 18.5958C56.7388 18.9273 56.3244 19.1835 55.8716 19.3487C55.4188 19.5138 54.9371 19.5844 54.4561 19.5561C52.2905 19.5555 50.7183 18.0682 50.7183 16.0155ZM56.5925 16.0155C56.5811 15.5942 56.446 15.1856 56.2043 14.8409C55.9626 14.4962 55.6249 14.2306 55.2334 14.0773C54.842 13.924 54.4142 13.8899 54.0035 13.9792C53.5928 14.0684 53.2175 14.2772 52.9245 14.5793C52.6314 14.8813 52.4337 15.2633 52.356 15.6775C52.2783 16.0917 52.3241 16.5197 52.4876 16.9079C52.6511 17.2961 52.9251 17.6274 53.2753 17.8603C53.6255 18.0932 54.0364 18.2174 54.4566 18.2173C54.7441 18.2242 55.0299 18.1715 55.2961 18.0625C55.5623 17.9535 55.8032 17.7906 56.0037 17.5839C56.2042 17.3772 56.36 17.1312 56.4613 16.8613C56.5626 16.5914 56.6073 16.3035 56.5925 16.0155Z" fill="white"/>
<path d="M65.1848 17.9788H62.0107L61.4173 19.4393H59.7856L62.8414 12.5662H64.4112L67.4372 19.4393H65.7758L65.1848 17.9788ZM64.6806 16.7616L63.5829 14.1448L62.4852 16.7616H64.6806Z" fill="white"/>
<path d="M69.7759 12.5935H71.3481V18.1576H75.2921V19.4356H69.7777L69.7759 12.5935Z" fill="white"/>
<path d="M82.612 17.9787H79.438L78.8445 19.4393H77.2153L80.2711 12.5959H81.8432L84.899 19.4691H83.2376L82.612 17.9787ZM82.1078 16.7616L81.0102 14.1448L79.9124 16.7616H82.1078Z" fill="white"/>
<path d="M92.6211 19.4368H91.0786V18.0085H86.7407V16.9375L89.9742 12.5935H91.6356L88.6394 16.7318H91.1375V15.4227H92.6211V19.4368Z" fill="white"/>
<path d="M99.9996 18.1577V19.4357H94.8378V18.3944L97.4779 15.895C98.0713 15.3297 98.1897 14.9724 98.1897 14.6456C98.1897 14.1101 97.8043 13.7827 97.0919 13.7827C96.8171 13.7731 96.544 13.8304 96.2961 13.9496C96.0481 14.0688 95.8326 14.2464 95.6679 14.4673L94.5107 13.7236C94.826 13.3018 95.2401 12.9645 95.7164 12.7416C96.1927 12.5187 96.7164 12.417 97.2413 12.4457C98.7546 12.4457 99.7897 13.2191 99.7897 14.4691C99.7897 15.124 99.6119 15.7471 98.6326 16.6411L97.0604 18.1291H99.9973L99.9996 18.1577Z" fill="white"/>
</g>
<defs>
<clipPath id="clip0_1516_38204">
<rect width="31.9061" height="32" fill="white"/>
</clipPath>
<clipPath id="clip1_1516_38204">
<rect width="57.4586" height="7.11111" fill="white" transform="translate(42.5415 12.4443)"/>
</clipPath>
</defs>
</svg>
